<svg xmlns="http://www.w3.org/2000/svg" viewBox="0 0 35 35"><path d="M1 1h7v7h-7zM10 1h2v1h-1v1h1v1h-1v1h2v1h1v3h-1v1h-1v-2h1v-1h-1v1h-1v-1h-1v1h1v2h-1v-1h-1v-6h1zM14 1h1v1h1v-1h3v2h2v1h-3v1h-1v1h1v2h-1v-1h-1v1h-1v-2h1v-1h-1v-1h2v-1h1v-1h-1v1h-2v1h-2v-1h-1v-1h2zM20 1h2v1h-2zM23 1h2v1h-1v1h-1zM27 1h7v7h-7zM2 2v5h5v-5zM25 2h1v4h-1v-1h-4v-1h4zM28 2v5h5v-5zM3 3h3v3h-3zM29 3h3v3h-3zM18 5h2v3h-1v-2h-1zM21 6h2v1h-1v1h-1zM23 7h1v1h1v-1h1v3h-1v-1h-1v1h1v1h-2v1h2v-1h2v1h1v-1h1v1h3v-1h1v2h-6v1h1v1h-2v-1h-1v-1h-2v1h1v4h-2v-1h-1v1h1v2h-1v-1h-2v1h2v1h-3v-2h-1v-1h3v-3h1v1h1v-1h-1v-1h1v-2h-1v-3h1v1h1v-1h-1v-1h1zM16 8h1v1h2v1h-1v2h-1v1h-2v-1h1v-1h1v-1h-2v-1h1zM1 9h1v1h-1zM3 9h5v1h-1v1h3v1h1v-1h1v1h1v-2h1v4h-1v-1h-2v1h2v1h-2v1h-4v1h-1v-1h-3v-1h1v-1h1v1h1v-1h1v1h1v-1h-1v-1h1v-1h-1v1h-1v-1h-2v-1h1v-1h-1v1h-1zM27 9h5v1h-1v1h-1v-1h-3zM2 11h1v2h1v1h-1v1h-2v-2h1zM19 11h1v1h-1zM5 13h1v1h-1zM19 13h1v1h-1zM14 14h4v1h-3v2h1v2h-2zM25 15h1v1h-1zM28 15h3v1h1v2h2v1h-2v1h1v1h-1v1h2v1h-3v-2h-1v-2h1v-2h-1v-1h-1v1h-2v-1h1zM32 15h1v1h-1zM2 16h1v1h-1zM17 16h1v1h-1zM33 16h1v1h-1zM1 17h1v2h1v2h-1v-1h-1zM3 17h1v1h1v1h1v1h1v1h-2v1h-1v-3h-1zM5 17h1v1h-1zM7 17h1v1h-1zM10 17h1v1h2v1h-2v1h1v1h-2v-2h-1v-1h1zM26 17h1v1h1v1h-1v3h1v1h-2v-1h-1v1h-1v-1h-1v1h-1v-1h-1v-1h5zM7 19h1v1h-1zM16 19h1v1h-1zM23 19h1v1h-1zM8 20h1v1h-1zM28 20h1v2h-1zM7 21h1v1h-1zM13 21h1v1h1v-1h3v1h-1v1h2v-1h1v2h-3v1h2v1h-1v1h-1v-1h-3v-1h2v-1h-2v-1h-1v3h1v1h3v1h1v1h-1v1h1v1h-3v-1h1v-1h-1v1h-1v-2h-1v-1h-1v1h-2v-1h-1v-3h1v-1h1v2h-1v1h2v-3h-1v-1h2zM1 22h2v1h-1v3h-1zM5 22h2v1h1v1h-2v-1h-1zM8 22h2v1h-2zM3 23h1v1h-1zM21 23h1v1h-1zM23 23h1v1h-1zM29 23h2v1h1v1h2v2h-2v-1h-1v-1h-1v-1h-1zM5 24h1v1h2v1h-4v-1h1zM22 24h1v1h-1zM24 24h1v1h-1zM27 24h1v1h2v3h4v1h-1v1h-3v1h-2v-1h-1v1h1v1h2v-1h1v1h1v1h-3v1h-2v-2h-1v-1h-5v-1h1v-2h-1v-1h-1v-1h1v-1h1v1h1v2h2v-3h2zM23 25h1v1h-1zM26 26v3h3v-3zM1 27h7v7h-7zM19 27h1v1h-1zM27 27h1v1h-1zM2 28v5h5v-5zM9 28h1v1h1v1h1v-2h1v3h1v1h2v1h-2v1h-5v-1h2v-1h-2zM20 28h1v2h-2v-1h1zM3 29h3v3h-3zM23 29v1h2v-1zM33 30h1v1h-1zM18 31h1v1h-1zM20 31h1v1h2v1h-2v1h-1zM12 32v1h1v-1zM17 32h1v2h-1zM25 32h1v2h-3v-1h2zM32 33h1v1h-1z"/></svg>